<svg width="24" height="24" viewBox="0 0 24 24" fill="none" xmlns="http://www.w3.org/2000/svg">
<g id="Briefcase">
<path id="Vector" d="M8.57143 3.42857H15.4286V1.71429H8.57143V3.42857ZM24 12V18.4286C24 19.0179 23.7902 19.5223 23.3705 19.942C22.9509 20.3616 22.4464 20.5714 21.8571 20.5714H2.14286C1.55357 20.5714 1.04911 20.3616 0.629464 19.942C0.209821 19.5223 0 19.0179 0 18.4286V12H9V14.1429C9 14.375 9.08482 14.5759 9.25446 14.7455C9.42411 14.9152 9.625 15 9.85714 15H14.1429C14.375 15 14.5759 14.9152 14.7455 14.7455C14.9152 14.5759 15 14.375 15 14.1429V12H24ZM13.7143 12V13.7143H10.2857V12H13.7143ZM24 5.57143V10.7143H0V5.57143C0 4.98214 0.209821 4.47768 0.629464 4.05804C1.04911 3.63839 1.55357 3.42857 2.14286 3.42857H6.85714V1.28571C6.85714 0.928571 6.98214 0.625 7.23214 0.375C7.48214 0.125 7.78571 0 8.14286 0H15.8571C16.2143 0 16.5179 0.125 16.7679 0.375C17.0179 0.625 17.1429 0.928571 17.1429 1.28571V3.42857H21.8571C22.4464 3.42857 22.9509 3.63839 23.3705 4.05804C23.7902 4.47768 24 4.98214 24 5.57143Z" fill="black"/>
</g>
</svg>
