<svg width="32" height="32" viewBox="0 0 32 32" fill="none" xmlns="http://www.w3.org/2000/svg">
<g id="message-square-dots">
<path id="Icon" d="M10.6667 14.6667H10.68M16 14.6667H16.0133M21.3333 14.6667H21.3467M28 26.6667L23.5676 24.4505C23.2316 24.2825 23.0636 24.1985 22.8875 24.1393C22.7312 24.0867 22.5703 24.0487 22.4069 24.0258C22.2229 24 22.0351 24 21.6594 24H10.4C8.15979 24 7.03969 24 6.18404 23.5641C5.43139 23.1806 4.81947 22.5687 4.43597 21.816C4 20.9604 4 19.8402 4 17.6V11.7334C4 9.49316 4 8.37306 4.43597 7.51741C4.81947 6.76476 5.43139 6.15284 6.18404 5.76935C7.03969 5.33337 8.15979 5.33337 10.4 5.33337H21.6C23.8402 5.33337 24.9603 5.33337 25.816 5.76935C26.5686 6.15284 27.1805 6.76476 27.564 7.51741C28 8.37306 28 9.49316 28 11.7334V26.6667Z" stroke="#101828" stroke-width="2" stroke-linecap="round" stroke-linejoin="round"/>
</g>
</svg>
