<svg width="40" height="40" viewBox="0 0 40 40" fill="none" xmlns="http://www.w3.org/2000/svg">
<rect x="0.25" y="0.25" width="39.5" height="39.5" rx="3.75" fill="#2F80ED"/>
<rect x="0.25" y="0.25" width="39.5" height="39.5" rx="3.75" stroke="#D0D5DD" stroke-width="0.5"/>
<g clip-path="url(#clip0_219_1935)">
<path d="M20 17.72C22.4853 17.72 24.5 15.7053 24.5 13.22C24.5 10.7347 22.4853 8.71997 20 8.71997C17.5147 8.71997 15.5 10.7347 15.5 13.22C15.5 15.7053 17.5147 17.72 20 17.72Z" fill="white"/>
<path d="M31.145 28.1299C30.6782 26.0046 29.6079 24.0593 28.0625 22.5274C27.6874 22.151 27.281 21.8073 26.8475 21.4999C24.8735 20.0193 22.4675 19.2287 20 19.2499C16.9829 19.2345 14.082 20.4126 11.93 22.5274C10.3846 24.0593 9.31429 26.0046 8.8475 28.1299C8.76637 28.5057 8.77075 28.895 8.86032 29.2689C8.9499 29.6427 9.12238 29.9917 9.365 30.2899C9.61627 30.5946 9.93268 30.839 10.2909 31.0051C10.6492 31.1713 11.0401 31.2549 11.435 31.2499H28.565C28.961 31.2502 29.352 31.1613 29.7091 30.99C30.0661 30.8186 30.38 30.5691 30.6275 30.2599C30.8658 29.9652 31.0358 29.6213 31.1252 29.253C31.2147 28.8847 31.2215 28.5011 31.145 28.1299Z" fill="white"/>
</g>
<defs>
<clipPath id="clip0_219_1935">
<rect width="24" height="24" fill="white" transform="translate(8 8)"/>
</clipPath>
</defs>
</svg>
