<svg width="24" height="24" viewBox="0 0 24 24" fill="none" xmlns="http://www.w3.org/2000/svg">
<g id="profile" clip-path="url(#clip0_19_3240)">
<g id="Layer 2">
<path id="Vector" d="M12 9.72021C14.4853 9.72021 16.5 7.7055 16.5 5.22021C16.5 2.73493 14.4853 0.720215 12 0.720215C9.51472 0.720215 7.5 2.73493 7.5 5.22021C7.5 7.7055 9.51472 9.72021 12 9.72021Z" fill="black"/>
<path id="Vector_2" d="M23.145 20.1304C22.6782 18.0051 21.6079 16.0598 20.0625 14.5279C19.6874 14.1515 19.281 13.8078 18.8475 13.5004C16.8735 12.0197 14.4675 11.2292 12 11.2504C8.98285 11.235 6.08198 12.4131 3.93 14.5279C2.38463 16.0598 1.31429 18.0051 0.847501 20.1304C0.766366 20.5062 0.770749 20.8955 0.860325 21.2693C0.9499 21.6432 1.12238 21.9922 1.365 22.2904C1.61627 22.5951 1.93268 22.8395 2.29093 23.0056C2.64918 23.1718 3.04013 23.2554 3.435 23.2504H20.565C20.961 23.2507 21.352 23.1618 21.7091 22.9904C22.0661 22.8191 22.38 22.5696 22.6275 22.2604C22.8658 21.9657 23.0358 21.6218 23.1252 21.2535C23.2147 20.8852 23.2215 20.5016 23.145 20.1304Z" fill="black"/>
</g>
</g>
<defs>
<clipPath id="clip0_19_3240">
<rect width="24" height="24" fill="white"/>
</clipPath>
</defs>
</svg>
