<svg width="24" height="24" viewBox="0 0 24 24" fill="none" xmlns="http://www.w3.org/2000/svg">
<g id="Pay Check">
<path id="37 Pay Check, Banking, Business, Commerce, Finance, Money" d="M17.5 6.5V7H6.5V6.5C6.5 6.36739 6.55268 6.24021 6.64645 6.14645C6.74021 6.05268 6.86739 6 7 6H17C17.1326 6 17.2598 6.05268 17.3536 6.14645C17.4473 6.24021 17.5 6.36739 17.5 6.5ZM21.5 3.5H9.5C9.36739 3.5 9.24021 3.44732 9.14645 3.35355C9.05268 3.25979 9 3.13261 9 3V2.5C9 2.10218 8.84196 1.72064 8.56066 1.43934C8.27936 1.15804 7.89782 1 7.5 1H2.5C2.10218 1 1.72064 1.15804 1.43934 1.43934C1.15804 1.72064 1 2.10218 1 2.5V7H5.5V6.5C5.5 6.10218 5.65804 5.72064 5.93934 5.43934C6.22064 5.15804 6.60218 5 7 5H17C17.3978 5 17.7794 5.15804 18.0607 5.43934C18.342 5.72064 18.5 6.10218 18.5 6.5V7H23V5C23 4.60218 22.842 4.22064 22.5607 3.93934C22.2794 3.65804 21.8978 3.5 21.5 3.5ZM1 18C1 18.3978 1.15804 18.7794 1.43934 19.0607C1.72064 19.342 2.10218 19.5 2.5 19.5H5V15.5C5.00009 15.3568 5.03094 15.2153 5.09046 15.085C5.14998 14.9548 5.23679 14.8388 5.345 14.745L7.5 12.87V10C7.5 9.73478 7.60536 9.48043 7.79289 9.29289C7.98043 9.10536 8.23478 9 8.5 9H15.5C15.7652 9 16.0196 9.10536 16.2071 9.29289C16.3946 9.48043 16.5 9.73478 16.5 10V12.87L18.655 14.745C18.7632 14.8388 18.85 14.9548 18.9095 15.085C18.9691 15.2153 18.9999 15.3568 19 15.5V19.5H21.5C21.8978 19.5 22.2794 19.342 22.5607 19.0607C22.842 18.7794 23 18.3978 23 18V8H1V18ZM16.5 15.525L18.035 14.87L16.5 13.53V15.525ZM7.5 13.525L5.965 14.865L7.5 15.525V13.525ZM12.195 18.455C12.1333 18.4811 12.067 18.4946 12 18.4946C11.933 18.4946 11.8667 18.4811 11.805 18.455L7.5 16.615L5.5 15.76V21.5C5.5 21.8978 5.65804 22.2794 5.93934 22.5607C6.22064 22.842 6.60218 23 7 23H17C17.3978 23 17.7794 22.842 18.0607 22.5607C18.342 22.2794 18.5 21.8978 18.5 21.5V15.76L16.5 16.615L12.195 18.455ZM12 17.455L8 15.74V10C8 9.86739 8.05268 9.74021 8.14645 9.64645C8.24021 9.55268 8.36739 9.5 8.5 9.5H15.5C15.6326 9.5 15.7598 9.55268 15.8536 9.64645C15.9473 9.74021 16 9.86739 16 10V15.74L12 17.455ZM11.5 15V15.5H12.5V15H13C13.1326 15 13.2598 14.9473 13.3536 14.8536C13.4473 14.7598 13.5 14.6326 13.5 14.5V13C13.5 12.8674 13.4473 12.7402 13.3536 12.6464C13.2598 12.5527 13.1326 12.5 13 12.5H11.5V12H13.5V11H12.5V10.5H11.5V11H11C10.8674 11 10.7402 11.0527 10.6464 11.1464C10.5527 11.2402 10.5 11.3674 10.5 11.5V13C10.5 13.1326 10.5527 13.2598 10.6464 13.3536C10.7402 13.4473 10.8674 13.5 11 13.5H12.5V14H10.5V15H11.5Z" fill="black"/>
</g>
</svg>
