<svg width="24" height="24" viewBox="0 0 24 24" fill="none" xmlns="http://www.w3.org/2000/svg">
<g id="Lightbulb">
<path id="Vector" d="M20.382 12.0928C20.4885 11.8084 20.577 11.515 20.6535 11.2201C20.667 11.1692 20.6835 11.1213 20.6955 11.0704C20.763 10.7934 20.811 10.5105 20.8515 10.226C20.8605 10.1602 20.877 10.0943 20.8845 10.0284C20.925 9.68264 20.9475 9.33383 20.9475 8.98204C20.9475 4.02994 16.9095 0 11.9475 0C6.98551 0 2.94751 4.02994 2.94751 8.98204C2.94751 9.33383 2.97001 9.68264 3.01201 10.0269C3.01951 10.0943 3.03451 10.1587 3.04351 10.2246C3.08401 10.509 3.13201 10.7919 3.19951 11.0689C3.21151 11.1198 3.22801 11.1692 3.24151 11.2186C3.31801 11.5135 3.40651 11.8069 3.51301 12.0913C3.52351 12.1183 3.53551 12.1452 3.54451 12.1722C3.66301 12.479 3.79501 12.7799 3.94651 13.0719L3.96451 13.1048C4.12201 13.4072 4.29601 13.7006 4.48801 13.985C4.49401 13.994 4.50001 14.0015 4.50451 14.0105C4.69201 14.2874 4.89601 14.5524 5.11351 14.8084L5.16601 14.8698C5.36401 15.0988 5.57851 15.3159 5.80051 15.5255C5.85001 15.5719 5.89651 15.6183 5.94751 15.6632C6.01351 15.7216 6.07201 15.7874 6.14101 15.8443C6.18151 15.8787 6.23101 15.9012 6.27601 15.9296C6.42451 16.0524 6.56551 16.1811 6.72301 16.2949C6.78601 16.3398 6.82501 16.3832 6.87901 16.4281C7.91401 17.2859 7.40851 17.9641 8.56051 17.9641H15.3345C16.485 17.9641 15.981 17.2859 17.0175 16.4281C17.0715 16.3832 17.1105 16.3413 17.1735 16.2949C17.331 16.1811 17.472 16.0524 17.6205 15.9296C17.664 15.8997 17.7135 15.8787 17.7555 15.8443C17.823 15.7874 17.883 15.7216 17.949 15.6632C17.9985 15.6183 18.0465 15.5704 18.096 15.5255C18.318 15.3159 18.531 15.0988 18.7305 14.8698L18.783 14.8084C19.0005 14.5524 19.2045 14.2874 19.392 14.0105C19.398 14.0015 19.404 13.994 19.4085 13.985C19.599 13.7021 19.773 13.4087 19.9305 13.1063L19.9485 13.0734C20.1 12.7814 20.232 12.4805 20.3505 12.1737C20.3595 12.1452 20.3715 12.1198 20.382 12.0928ZM17.25 9.0524C17.0511 9.0524 16.8603 8.97354 16.7197 8.83316C16.579 8.69279 16.5 8.50241 16.5 8.30389C16.5 6.02246 14.4375 4.49102 12.75 4.49102C12.5511 4.49102 12.3603 4.41216 12.2197 4.27179C12.079 4.13141 12 3.94103 12 3.74252C12 3.544 12.079 3.35362 12.2197 3.21324C12.3603 3.07287 12.5511 2.99401 12.75 2.99401C15.3285 2.99401 18 4.88922 18 8.30389C18 8.50241 17.921 8.69279 17.7803 8.83316C17.6397 8.97354 17.4489 9.0524 17.25 9.0524ZM11.856 22.4551H8.56051L11.265 23.8353C11.4752 23.9427 11.7078 23.9991 11.944 23.9999C12.1801 24.0007 12.4131 23.9458 12.624 23.8398L15.3675 22.4551H11.856ZM16.5 20.2096C16.5 20.0111 16.421 19.8207 16.2803 19.6803C16.1397 19.5399 15.9489 19.4611 15.75 19.4611H8.25001C8.0511 19.4611 7.86033 19.5399 7.71968 19.6803C7.57903 19.8207 7.50001 20.0111 7.50001 20.2096C7.50001 20.4081 7.57903 20.5985 7.71968 20.7389C7.86033 20.8792 8.0511 20.9581 8.25001 20.9581H15.75C15.9489 20.9581 16.1397 20.8792 16.2803 20.7389C16.421 20.5985 16.5 20.4081 16.5 20.2096Z" fill="black"/>
</g>
</svg>
