<svg width="24" height="24" viewBox="0 0 24 24" fill="none" xmlns="http://www.w3.org/2000/svg">
<g id="Schedule">
<path id="Vector" d="M22.5 3.5H20V4.5C19.9993 4.89597 19.8811 5.28283 19.6604 5.61156C19.4396 5.94029 19.1263 6.1961 18.76 6.34657C18.3937 6.49704 17.991 6.5354 17.603 6.45679C17.2149 6.37818 16.8588 6.18614 16.58 5.905C15.885 5.23 16 4.5 16 3.5H8V4.5C7.99933 4.89597 7.88113 5.28283 7.66038 5.61156C7.43963 5.94029 7.12627 6.1961 6.76001 6.34657C6.39374 6.49704 5.99105 6.5354 5.60296 6.45679C5.21487 6.37818 4.85884 6.18614 4.58 5.905C3.885 5.23 4 4.5 4 3.5H1.5C1.23478 3.5 0.98043 3.60536 0.792893 3.79289C0.605357 3.98043 0.5 4.23478 0.5 4.5V8.5H23.5V4.5C23.5 4.23478 23.3946 3.98043 23.2071 3.79289C23.0196 3.60536 22.7652 3.5 22.5 3.5ZM15 6.5H9C8.86739 6.5 8.74021 6.44732 8.64645 6.35355C8.55268 6.25979 8.5 6.13261 8.5 6C8.5 5.86739 8.55268 5.74021 8.64645 5.64645C8.74021 5.55268 8.86739 5.5 9 5.5H15C15.1326 5.5 15.2598 5.55268 15.3536 5.64645C15.4473 5.74021 15.5 5.86739 15.5 6C15.5 6.13261 15.4473 6.25979 15.3536 6.35355C15.2598 6.44732 15.1326 6.5 15 6.5Z" fill="black"/>
<path id="Vector_2" d="M6 5.5C6.26522 5.5 6.51957 5.39464 6.70711 5.20711C6.89464 5.01957 7 4.76522 7 4.5V2.5C7 2.23478 6.89464 1.98043 6.70711 1.79289C6.51957 1.60536 6.26522 1.5 6 1.5C5.73478 1.5 5.48043 1.60536 5.29289 1.79289C5.10536 1.98043 5 2.23478 5 2.5V4.5C5 4.76522 5.10536 5.01957 5.29289 5.20711C5.48043 5.39464 5.73478 5.5 6 5.5ZM18 5.5C18.2652 5.5 18.5196 5.39464 18.7071 5.20711C18.8946 5.01957 19 4.76522 19 4.5V2.5C19 2.23478 18.8946 1.98043 18.7071 1.79289C18.5196 1.60536 18.2652 1.5 18 1.5C17.7348 1.5 17.4804 1.60536 17.2929 1.79289C17.1054 1.98043 17 2.23478 17 2.5V4.5C17 4.76522 17.1054 5.01957 17.2929 5.20711C17.4804 5.39464 17.7348 5.5 18 5.5ZM20.5 22L23 19.5H20.5V22ZM9 13H10V14H9V13ZM4 18H5V19H4V18ZM9 18H10V19H9V18ZM14 18H15V19H14V18ZM19 13H20V14H19V13Z" fill="black"/>
<path id="Vector_3" d="M0.5 21.5C0.5 21.7652 0.605357 22.0196 0.792893 22.2071C0.98043 22.3946 1.23478 22.5 1.5 22.5H19.5V19C19.5 18.8674 19.5527 18.7402 19.6464 18.6464C19.7402 18.5527 19.8674 18.5 20 18.5H23.5V9.5H0.5V21.5ZM18 12.5C18 12.3674 18.0527 12.2402 18.1464 12.1464C18.2402 12.0527 18.3674 12 18.5 12H20.5C20.6326 12 20.7598 12.0527 20.8536 12.1464C20.9473 12.2402 21 12.3674 21 12.5V14.5C21 14.6326 20.9473 14.7598 20.8536 14.8536C20.7598 14.9473 20.6326 15 20.5 15H18.5C18.3674 15 18.2402 14.9473 18.1464 14.8536C18.0527 14.7598 18 14.6326 18 14.5V12.5ZM13 12.5C13 12.3674 13.0527 12.2402 13.1464 12.1464C13.2402 12.0527 13.3674 12 13.5 12H15.5C15.6326 12 15.7598 12.0527 15.8536 12.1464C15.9473 12.2402 16 12.3674 16 12.5V14.5C16 14.6326 15.9473 14.7598 15.8536 14.8536C15.7598 14.9473 15.6326 15 15.5 15H13.5C13.3674 15 13.2402 14.9473 13.1464 14.8536C13.0527 14.7598 13 14.6326 13 14.5V12.5ZM13 17.5C13 17.3674 13.0527 17.2402 13.1464 17.1464C13.2402 17.0527 13.3674 17 13.5 17H15.5C15.6326 17 15.7598 17.0527 15.8536 17.1464C15.9473 17.2402 16 17.3674 16 17.5V19.5C16 19.6326 15.9473 19.7598 15.8536 19.8536C15.7598 19.9473 15.6326 20 15.5 20H13.5C13.3674 20 13.2402 19.9473 13.1464 19.8536C13.0527 19.7598 13 19.6326 13 19.5V17.5ZM8 12.5C8 12.3674 8.05268 12.2402 8.14645 12.1464C8.24021 12.0527 8.36739 12 8.5 12H10.5C10.6326 12 10.7598 12.0527 10.8536 12.1464C10.9473 12.2402 11 12.3674 11 12.5V14.5C11 14.6326 10.9473 14.7598 10.8536 14.8536C10.7598 14.9473 10.6326 15 10.5 15H8.5C8.36739 15 8.24021 14.9473 8.14645 14.8536C8.05268 14.7598 8 14.6326 8 14.5V12.5ZM8 17.5C8 17.3674 8.05268 17.2402 8.14645 17.1464C8.24021 17.0527 8.36739 17 8.5 17H10.5C10.6326 17 10.7598 17.0527 10.8536 17.1464C10.9473 17.2402 11 17.3674 11 17.5V19.5C11 19.6326 10.9473 19.7598 10.8536 19.8536C10.7598 19.9473 10.6326 20 10.5 20H8.5C8.36739 20 8.24021 19.9473 8.14645 19.8536C8.05268 19.7598 8 19.6326 8 19.5V17.5ZM3 17.5C3 17.3674 3.05268 17.2402 3.14645 17.1464C3.24021 17.0527 3.36739 17 3.5 17H5.5C5.63261 17 5.75979 17.0527 5.85355 17.1464C5.94732 17.2402 6 17.3674 6 17.5V19.5C6 19.6326 5.94732 19.7598 5.85355 19.8536C5.75979 19.9473 5.63261 20 5.5 20H3.5C3.36739 20 3.24021 19.9473 3.14645 19.8536C3.05268 19.7598 3 19.6326 3 19.5V17.5Z" fill="black"/>
<path id="Vector_4" d="M14 13H15V14H14V13Z" fill="black"/>
</g>
</svg>
