<svg width="25" height="24" viewBox="0 0 25 24" fill="none" xmlns="http://www.w3.org/2000/svg">
<g id="Google" clip-path="url(#clip0_52_10075)">
<path id="Vector" d="M5.81891 14.5036L4.9835 17.6223L1.93011 17.6869C1.01759 15.9944 0.5 14.0579 0.5 12.0001C0.5 10.0102 0.983938 8.13374 1.84175 6.48145H1.84241L4.56078 6.97982L5.75159 9.68188C5.50236 10.4085 5.36652 11.1885 5.36652 12.0001C5.36661 12.881 5.52617 13.725 5.81891 14.5036Z" fill="#FBBB00"/>
<path id="Vector_2" d="M24.2903 9.7583C24.4281 10.4842 24.5 11.2339 24.5 12.0001C24.5 12.8592 24.4097 13.6972 24.2376 14.5056C23.6534 17.2563 22.127 19.6583 20.0125 21.3581L20.0119 21.3574L16.588 21.1827L16.1034 18.1576C17.5064 17.3348 18.6029 16.0471 19.1805 14.5056H12.7638V9.7583H24.2903Z" fill="#518EF8"/>
<path id="Vector_3" d="M20.0118 21.3572L20.0125 21.3579C17.956 23.0109 15.3437 23.9999 12.4999 23.9999C7.93005 23.9999 3.95688 21.4456 1.93005 17.6867L5.81885 14.5034C6.83224 17.208 9.44126 19.1333 12.4999 19.1333C13.8146 19.1333 15.0463 18.7779 16.1032 18.1575L20.0118 21.3572Z" fill="#28B446"/>
<path id="Vector_4" d="M20.1596 2.76262L16.2721 5.94525C15.1783 5.26153 13.8853 4.86656 12.5 4.86656C9.37213 4.86656 6.71431 6.88017 5.75169 9.68175L1.84245 6.48131H1.8418C3.83895 2.63077 7.86223 0 12.5 0C15.4117 0 18.0814 1.03716 20.1596 2.76262Z" fill="#F14336"/>
</g>
<defs>
<clipPath id="clip0_52_10075">
<rect width="24" height="24" fill="white" transform="translate(0.5)"/>
</clipPath>
</defs>
</svg>
